<svg xmlns="http://www.w3.org/2000/svg" xmlns:xlink="http://www.w3.org/1999/xlink" width="350" zoomAndPan="magnify" viewBox="0 0 262.5 74.999997" height="100" preserveAspectRatio="xMidYMid meet" version="1.0"><defs><g/></defs><g fill="#000000" fill-opacity="1"><g transform="translate(39.470706, -7.056577)"><g><path d="M 124.765625 42.953125 L 150.359375 43.546875 C 168.210938 43.546875 181.015625 42.070312 188.765625 39.125 C 196.515625 36.1875 202.101562 32.5625 205.53125 28.25 C 208.96875 23.9375 211.566406 18.441406 213.328125 11.765625 L 215.6875 12.359375 C 215.6875 23.734375 212.742188 33.25 206.859375 40.90625 C 196.066406 55.414062 177.53125 62.671875 151.25 62.671875 C 143.789062 62.671875 135.941406 61.984375 127.703125 60.609375 C 111.617188 57.867188 102.398438 57.28125 100.046875 58.84375 C 97.097656 60.21875 95.53125 65.414062 95.34375 74.4375 L 92.390625 74.4375 C 91.609375 66.007812 89.453125 61.007812 85.921875 59.4375 C 83.171875 59.039062 80.765625 58.84375 78.703125 58.84375 C 76.648438 58.84375 70.082031 59.476562 59 60.75 C 47.914062 62.03125 39.921875 62.671875 35.015625 62.671875 C 15.597656 62.671875 0.00390625 58.5 -11.765625 50.15625 C -23.535156 41.820312 -29.421875 29.222656 -29.421875 12.359375 L -27.078125 11.765625 C -23.734375 24.910156 -16.671875 33.640625 -5.890625 37.953125 C 4.117188 41.679688 17.953125 43.546875 35.609375 43.546875 L 61.796875 42.953125 C 70.421875 42.953125 76.5 43.539062 80.03125 44.71875 C 87.289062 47.46875 91.609375 51.882812 92.984375 57.96875 C 95.535156 49.53125 102.890625 44.722656 115.046875 43.546875 C 118.773438 43.148438 122.015625 42.953125 124.765625 42.953125 Z M 124.765625 42.953125 "/></g></g></g></svg>