<svg xmlns="http://www.w3.org/2000/svg" xmlns:xlink="http://www.w3.org/1999/xlink" width="350" zoomAndPan="magnify" viewBox="0 0 262.5 74.999997" height="100" preserveAspectRatio="xMidYMid meet" version="1.0"><defs><clipPath id="e8b1ce5cbb"><path d="M 116 46 L 129 46 L 129 72 L 116 72 Z M 116 46 " clip-rule="nonzero"/></clipPath><clipPath id="31bb8afc6d"><path d="M 161.890625 -86.332031 L 246.222656 38.277344 L 99.917969 137.292969 L 15.582031 12.6875 Z M 161.890625 -86.332031 " clip-rule="nonzero"/></clipPath><clipPath id="2c42558987"><path d="M 161.890625 -86.332031 L 246.222656 38.277344 L 99.917969 137.292969 L 15.582031 12.6875 Z M 161.890625 -86.332031 " clip-rule="nonzero"/></clipPath><clipPath id="f37ff666b3"><path d="M 117 46 L 125 46 L 125 72 L 117 72 Z M 117 46 " clip-rule="nonzero"/></clipPath><clipPath id="f9cf21b9cc"><path d="M 161.890625 -86.332031 L 246.222656 38.277344 L 99.917969 137.292969 L 15.582031 12.6875 Z M 161.890625 -86.332031 " clip-rule="nonzero"/></clipPath><clipPath id="966e257cb4"><path d="M 161.890625 -86.332031 L 246.222656 38.277344 L 99.917969 137.292969 L 15.582031 12.6875 Z M 161.890625 -86.332031 " clip-rule="nonzero"/></clipPath><clipPath id="3cc2710566"><path d="M 98 36 L 110 36 L 110 63 L 98 63 Z M 98 36 " clip-rule="nonzero"/></clipPath><clipPath id="7cfcf197ee"><path d="M 161.890625 -86.332031 L 246.222656 38.277344 L 99.917969 137.292969 L 15.582031 12.6875 Z M 161.890625 -86.332031 " clip-rule="nonzero"/></clipPath><clipPath id="71e9a47c0a"><path d="M 161.890625 -86.332031 L 246.222656 38.277344 L 99.917969 137.292969 L 15.582031 12.6875 Z M 161.890625 -86.332031 " clip-rule="nonzero"/></clipPath><clipPath id="af7bca996e"><path d="M 102 36 L 107 36 L 107 63 L 102 63 Z M 102 36 " clip-rule="nonzero"/></clipPath><clipPath id="66e26cb0ba"><path d="M 161.890625 -86.332031 L 246.222656 38.277344 L 99.917969 137.292969 L 15.582031 12.6875 Z M 161.890625 -86.332031 " clip-rule="nonzero"/></clipPath><clipPath id="b21571c0d0"><path d="M 161.890625 -86.332031 L 246.222656 38.277344 L 99.917969 137.292969 L 15.582031 12.6875 Z M 161.890625 -86.332031 " clip-rule="nonzero"/></clipPath><clipPath id="9bb4eef789"><path d="M 137 49 L 157 49 L 157 71 L 137 71 Z M 137 49 " clip-rule="nonzero"/></clipPath><clipPath id="19d833d031"><path d="M 161.890625 -86.332031 L 246.222656 38.277344 L 99.917969 137.292969 L 15.582031 12.6875 Z M 161.890625 -86.332031 " clip-rule="nonzero"/></clipPath><clipPath id="4763fac2e6"><path d="M 161.890625 -86.332031 L 246.222656 38.277344 L 99.917969 137.292969 L 15.582031 12.6875 Z M 161.890625 -86.332031 " clip-rule="nonzero"/></clipPath><clipPath id="26d54b0d29"><path d="M 137 49 L 154 49 L 154 70 L 137 70 Z M 137 49 " clip-rule="nonzero"/></clipPath><clipPath id="92bb64a65e"><path d="M 161.890625 -86.332031 L 246.222656 38.277344 L 99.917969 137.292969 L 15.582031 12.6875 Z M 161.890625 -86.332031 " clip-rule="nonzero"/></clipPath><clipPath id="cd28e87310"><path d="M 161.890625 -86.332031 L 246.222656 38.277344 L 99.917969 137.292969 L 15.582031 12.6875 Z M 161.890625 -86.332031 " clip-rule="nonzero"/></clipPath><clipPath id="84df3ef3d4"><path d="M 160 43 L 180 43 L 180 64 L 160 64 Z M 160 43 " clip-rule="nonzero"/></clipPath><clipPath id="750720ddf8"><path d="M 161.890625 -86.332031 L 246.222656 38.277344 L 99.917969 137.292969 L 15.582031 12.6875 Z M 161.890625 -86.332031 " clip-rule="nonzero"/></clipPath><clipPath id="96f50ee17a"><path d="M 161.890625 -86.332031 L 246.222656 38.277344 L 99.917969 137.292969 L 15.582031 12.6875 Z M 161.890625 -86.332031 " clip-rule="nonzero"/></clipPath><clipPath id="54bd041306"><path d="M 160 43 L 177 43 L 177 64 L 160 64 Z M 160 43 " clip-rule="nonzero"/></clipPath><clipPath id="db3a564877"><path d="M 161.890625 -86.332031 L 246.222656 38.277344 L 99.917969 137.292969 L 15.582031 12.6875 Z M 161.890625 -86.332031 " clip-rule="nonzero"/></clipPath><clipPath id="331ec8e954"><path d="M 161.890625 -86.332031 L 246.222656 38.277344 L 99.917969 137.292969 L 15.582031 12.6875 Z M 161.890625 -86.332031 " clip-rule="nonzero"/></clipPath><clipPath id="a912a09040"><path d="M 183 33 L 202 33 L 202 55 L 183 55 Z M 183 33 " clip-rule="nonzero"/></clipPath><clipPath id="dddfe1582c"><path d="M 161.890625 -86.332031 L 246.222656 38.277344 L 99.917969 137.292969 L 15.582031 12.6875 Z M 161.890625 -86.332031 " clip-rule="nonzero"/></clipPath><clipPath id="b3fc8e90db"><path d="M 161.890625 -86.332031 L 246.222656 38.277344 L 99.917969 137.292969 L 15.582031 12.6875 Z M 161.890625 -86.332031 " clip-rule="nonzero"/></clipPath><clipPath id="518d3666e4"><path d="M 183 33 L 200 33 L 200 54 L 183 54 Z M 183 33 " clip-rule="nonzero"/></clipPath><clipPath id="8d59792acf"><path d="M 161.890625 -86.332031 L 246.222656 38.277344 L 99.917969 137.292969 L 15.582031 12.6875 Z M 161.890625 -86.332031 " clip-rule="nonzero"/></clipPath><clipPath id="f8b2bbb964"><path d="M 161.890625 -86.332031 L 246.222656 38.277344 L 99.917969 137.292969 L 15.582031 12.6875 Z M 161.890625 -86.332031 " clip-rule="nonzero"/></clipPath><clipPath id="e11cca7baf"><path d="M 214 29 L 233 29 L 233 50 L 214 50 Z M 214 29 " clip-rule="nonzero"/></clipPath><clipPath id="9859104d08"><path d="M 161.890625 -86.332031 L 246.222656 38.277344 L 99.917969 137.292969 L 15.582031 12.6875 Z M 161.890625 -86.332031 " clip-rule="nonzero"/></clipPath><clipPath id="ec513855c6"><path d="M 161.890625 -86.332031 L 246.222656 38.277344 L 99.917969 137.292969 L 15.582031 12.6875 Z M 161.890625 -86.332031 " clip-rule="nonzero"/></clipPath><clipPath id="502fff7d9b"><path d="M 220.695312 24.542969 L 235.097656 45.820312 L 225.339844 52.425781 L 210.9375 31.148438 Z M 220.695312 24.542969 " clip-rule="nonzero"/></clipPath><clipPath id="59899e9b0f"><path d="M 214 29 L 231 29 L 231 50 L 214 50 Z M 214 29 " clip-rule="nonzero"/></clipPath><clipPath id="fa194217fd"><path d="M 161.890625 -86.332031 L 246.222656 38.277344 L 99.917969 137.292969 L 15.582031 12.6875 Z M 161.890625 -86.332031 " clip-rule="nonzero"/></clipPath><clipPath id="71782665c8"><path d="M 161.890625 -86.332031 L 246.222656 38.277344 L 99.917969 137.292969 L 15.582031 12.6875 Z M 161.890625 -86.332031 " clip-rule="nonzero"/></clipPath><clipPath id="9ff2b9239d"><path d="M 217.589844 26.644531 L 231.992188 47.921875 L 228.445312 50.324219 L 214.042969 29.046875 Z M 217.589844 26.644531 " clip-rule="nonzero"/></clipPath><clipPath id="6ab4eb8aa3"><path d="M 198 6 L 216 6 L 216 28 L 198 28 Z M 198 6 " clip-rule="nonzero"/></clipPath><clipPath id="e522d3d146"><path d="M 161.890625 -86.332031 L 246.222656 38.277344 L 99.917969 137.292969 L 15.582031 12.6875 Z M 161.890625 -86.332031 " clip-rule="nonzero"/></clipPath><clipPath id="efc74c1dcb"><path d="M 161.890625 -86.332031 L 246.222656 38.277344 L 99.917969 137.292969 L 15.582031 12.6875 Z M 161.890625 -86.332031 " clip-rule="nonzero"/></clipPath><clipPath id="0b7adbffdc"><path d="M 198 6 L 214 6 L 214 28 L 198 28 Z M 198 6 " clip-rule="nonzero"/></clipPath><clipPath id="10b6b94899"><path d="M 161.890625 -86.332031 L 246.222656 38.277344 L 99.917969 137.292969 L 15.582031 12.6875 Z M 161.890625 -86.332031 " clip-rule="nonzero"/></clipPath><clipPath id="74819fc764"><path d="M 161.890625 -86.332031 L 246.222656 38.277344 L 99.917969 137.292969 L 15.582031 12.6875 Z M 161.890625 -86.332031 " clip-rule="nonzero"/></clipPath><clipPath id="43f5a65a3d"><path d="M 179 10 L 192 10 L 192 35 L 179 35 Z M 179 10 " clip-rule="nonzero"/></clipPath><clipPath id="65ee8876c3"><path d="M 161.890625 -86.332031 L 246.222656 38.277344 L 99.917969 137.292969 L 15.582031 12.6875 Z M 161.890625 -86.332031 " clip-rule="nonzero"/></clipPath><clipPath id="f5b32d37ee"><path d="M 161.890625 -86.332031 L 246.222656 38.277344 L 99.917969 137.292969 L 15.582031 12.6875 Z M 161.890625 -86.332031 " clip-rule="nonzero"/></clipPath><clipPath id="6302ac1d78"><path d="M 179 10 L 189 10 L 189 35 L 179 35 Z M 179 10 " clip-rule="nonzero"/></clipPath><clipPath id="6a0d8fa4a0"><path d="M 161.890625 -86.332031 L 246.222656 38.277344 L 99.917969 137.292969 L 15.582031 12.6875 Z M 161.890625 -86.332031 " clip-rule="nonzero"/></clipPath><clipPath id="4f0351a1d1"><path d="M 161.890625 -86.332031 L 246.222656 38.277344 L 99.917969 137.292969 L 15.582031 12.6875 Z M 161.890625 -86.332031 " clip-rule="nonzero"/></clipPath><clipPath id="e3007424a8"><path d="M 16 11 L 221 11 L 221 51 L 16 51 Z M 16 11 " clip-rule="nonzero"/></clipPath><clipPath id="fc57ccb367"><path d="M 161.890625 -86.332031 L 246.222656 38.277344 L 99.917969 137.292969 L 15.582031 12.6875 Z M 161.890625 -86.332031 " clip-rule="nonzero"/></clipPath><clipPath id="0f50cf368e"><path d="M 161.890625 -86.332031 L 246.222656 38.277344 L 99.917969 137.292969 L 15.582031 12.6875 Z M 161.890625 -86.332031 " clip-rule="nonzero"/></clipPath><clipPath id="9a35c97905"><path d="M 147.429688 -76.546875 L 220.371094 31.230469 L 88.742188 120.316406 L 15.796875 12.542969 Z M 147.429688 -76.546875 " clip-rule="nonzero"/></clipPath><clipPath id="3201c1c061"><path d="M 161 17 L 174 17 L 174 43 L 161 43 Z M 161 17 " clip-rule="nonzero"/></clipPath><clipPath id="ce6d405a48"><path d="M 161.890625 -86.332031 L 246.222656 38.277344 L 99.917969 137.292969 L 15.582031 12.6875 Z M 161.890625 -86.332031 " clip-rule="nonzero"/></clipPath><clipPath id="ee304f0a7c"><path d="M 161.890625 -86.332031 L 246.222656 38.277344 L 99.917969 137.292969 L 15.582031 12.6875 Z M 161.890625 -86.332031 " clip-rule="nonzero"/></clipPath><clipPath id="eed8e7bcc2"><path d="M 161 17 L 171 17 L 171 43 L 161 43 Z M 161 17 " clip-rule="nonzero"/></clipPath><clipPath id="f80d9f1e77"><path d="M 161.890625 -86.332031 L 246.222656 38.277344 L 99.917969 137.292969 L 15.582031 12.6875 Z M 161.890625 -86.332031 " clip-rule="nonzero"/></clipPath><clipPath id="af668ece4b"><path d="M 161.890625 -86.332031 L 246.222656 38.277344 L 99.917969 137.292969 L 15.582031 12.6875 Z M 161.890625 -86.332031 " clip-rule="nonzero"/></clipPath><clipPath id="261f5c07ba"><path d="M 137 24 L 151 24 L 151 50 L 137 50 Z M 137 24 " clip-rule="nonzero"/></clipPath><clipPath id="75e63c5d41"><path d="M 161.890625 -86.332031 L 246.222656 38.277344 L 99.917969 137.292969 L 15.582031 12.6875 Z M 161.890625 -86.332031 " clip-rule="nonzero"/></clipPath><clipPath id="b5a5a2bb58"><path d="M 161.890625 -86.332031 L 246.222656 38.277344 L 99.917969 137.292969 L 15.582031 12.6875 Z M 161.890625 -86.332031 " clip-rule="nonzero"/></clipPath><clipPath id="1b72b68225"><path d="M 137 24 L 147 24 L 147 50 L 137 50 Z M 137 24 " clip-rule="nonzero"/></clipPath><clipPath id="b24b124761"><path d="M 161.890625 -86.332031 L 246.222656 38.277344 L 99.917969 137.292969 L 15.582031 12.6875 Z M 161.890625 -86.332031 " clip-rule="nonzero"/></clipPath><clipPath id="1e3cfd6a27"><path d="M 161.890625 -86.332031 L 246.222656 38.277344 L 99.917969 137.292969 L 15.582031 12.6875 Z M 161.890625 -86.332031 " clip-rule="nonzero"/></clipPath><clipPath id="c758792057"><path d="M 114 22 L 131 22 L 131 45 L 114 45 Z M 114 22 " clip-rule="nonzero"/></clipPath><clipPath id="0957b48aff"><path d="M 161.890625 -86.332031 L 246.222656 38.277344 L 99.917969 137.292969 L 15.582031 12.6875 Z M 161.890625 -86.332031 " clip-rule="nonzero"/></clipPath><clipPath id="3ab97528f1"><path d="M 161.890625 -86.332031 L 246.222656 38.277344 L 99.917969 137.292969 L 15.582031 12.6875 Z M 161.890625 -86.332031 " clip-rule="nonzero"/></clipPath><clipPath id="e5c2b0345f"><path d="M 114 22 L 129 22 L 129 45 L 114 45 Z M 114 22 " clip-rule="nonzero"/></clipPath><clipPath id="68b9de90c5"><path d="M 161.890625 -86.332031 L 246.222656 38.277344 L 99.917969 137.292969 L 15.582031 12.6875 Z M 161.890625 -86.332031 " clip-rule="nonzero"/></clipPath><clipPath id="14c1b1dc42"><path d="M 161.890625 -86.332031 L 246.222656 38.277344 L 99.917969 137.292969 L 15.582031 12.6875 Z M 161.890625 -86.332031 " clip-rule="nonzero"/></clipPath><clipPath id="3e018c51c4"><path d="M 94 11 L 113 11 L 113 33 L 94 33 Z M 94 11 " clip-rule="nonzero"/></clipPath><clipPath id="05f731185b"><path d="M 161.890625 -86.332031 L 246.222656 38.277344 L 99.917969 137.292969 L 15.582031 12.6875 Z M 161.890625 -86.332031 " clip-rule="nonzero"/></clipPath><clipPath id="b662816f02"><path d="M 161.890625 -86.332031 L 246.222656 38.277344 L 99.917969 137.292969 L 15.582031 12.6875 Z M 161.890625 -86.332031 " clip-rule="nonzero"/></clipPath><clipPath id="77f008fa41"><path d="M 94 12 L 111 12 L 111 33 L 94 33 Z M 94 12 " clip-rule="nonzero"/></clipPath><clipPath id="986593b55c"><path d="M 161.890625 -86.332031 L 246.222656 38.277344 L 99.917969 137.292969 L 15.582031 12.6875 Z M 161.890625 -86.332031 " clip-rule="nonzero"/></clipPath><clipPath id="3319f10251"><path d="M 161.890625 -86.332031 L 246.222656 38.277344 L 99.917969 137.292969 L 15.582031 12.6875 Z M 161.890625 -86.332031 " clip-rule="nonzero"/></clipPath><clipPath id="8f5a042b28"><path d="M 76 26 L 88 26 L 88 52 L 76 52 Z M 76 26 " clip-rule="nonzero"/></clipPath><clipPath id="725f88bc05"><path d="M 161.890625 -86.332031 L 246.222656 38.277344 L 99.917969 137.292969 L 15.582031 12.6875 Z M 161.890625 -86.332031 " clip-rule="nonzero"/></clipPath><clipPath id="76977ed5ab"><path d="M 161.890625 -86.332031 L 246.222656 38.277344 L 99.917969 137.292969 L 15.582031 12.6875 Z M 161.890625 -86.332031 " clip-rule="nonzero"/></clipPath><clipPath id="9d1488a300"><path d="M 80 26 L 85 26 L 85 52 L 80 52 Z M 80 26 " clip-rule="nonzero"/></clipPath><clipPath id="75f9b6014d"><path d="M 161.890625 -86.332031 L 246.222656 38.277344 L 99.917969 137.292969 L 15.582031 12.6875 Z M 161.890625 -86.332031 " clip-rule="nonzero"/></clipPath><clipPath id="e3239b6b5e"><path d="M 161.890625 -86.332031 L 246.222656 38.277344 L 99.917969 137.292969 L 15.582031 12.6875 Z M 161.890625 -86.332031 " clip-rule="nonzero"/></clipPath><clipPath id="9b1d0c112d"><path d="M 66 2 L 88 2 L 88 21 L 66 21 Z M 66 2 " clip-rule="nonzero"/></clipPath><clipPath id="e36ee0b469"><path d="M 161.890625 -86.332031 L 246.222656 38.277344 L 99.917969 137.292969 L 15.582031 12.6875 Z M 161.890625 -86.332031 " clip-rule="nonzero"/></clipPath><clipPath id="0ca546da5d"><path d="M 161.890625 -86.332031 L 246.222656 38.277344 L 99.917969 137.292969 L 15.582031 12.6875 Z M 161.890625 -86.332031 " clip-rule="nonzero"/></clipPath><clipPath id="889fd62e2b"><path d="M 66 3 L 86 3 L 86 21 L 66 21 Z M 66 3 " clip-rule="nonzero"/></clipPath><clipPath id="6d3fcb02a0"><path d="M 161.890625 -86.332031 L 246.222656 38.277344 L 99.917969 137.292969 L 15.582031 12.6875 Z M 161.890625 -86.332031 " clip-rule="nonzero"/></clipPath><clipPath id="43e42c07e9"><path d="M 161.890625 -86.332031 L 246.222656 38.277344 L 99.917969 137.292969 L 15.582031 12.6875 Z M 161.890625 -86.332031 " clip-rule="nonzero"/></clipPath><clipPath id="4d6a8c6ac2"><path d="M 49 15 L 62 15 L 62 41 L 49 41 Z M 49 15 " clip-rule="nonzero"/></clipPath><clipPath id="7f076c6b38"><path d="M 161.890625 -86.332031 L 246.222656 38.277344 L 99.917969 137.292969 L 15.582031 12.6875 Z M 161.890625 -86.332031 " clip-rule="nonzero"/></clipPath><clipPath id="997f2ca668"><path d="M 161.890625 -86.332031 L 246.222656 38.277344 L 99.917969 137.292969 L 15.582031 12.6875 Z M 161.890625 -86.332031 " clip-rule="nonzero"/></clipPath><clipPath id="f5a0e50c0e"><path d="M 49 15 L 59 15 L 59 41 L 49 41 Z M 49 15 " clip-rule="nonzero"/></clipPath><clipPath id="c0c9ac130c"><path d="M 161.890625 -86.332031 L 246.222656 38.277344 L 99.917969 137.292969 L 15.582031 12.6875 Z M 161.890625 -86.332031 " clip-rule="nonzero"/></clipPath><clipPath id="adfbed656c"><path d="M 161.890625 -86.332031 L 246.222656 38.277344 L 99.917969 137.292969 L 15.582031 12.6875 Z M 161.890625 -86.332031 " clip-rule="nonzero"/></clipPath></defs><g clip-path="url(#e8b1ce5cbb)"><g clip-path="url(#31bb8afc6d)"><g clip-path="url(#2c42558987)"><path fill="#7f906c" d="M 117.125 46.585938 C 131.628906 54.542969 132.121094 77.164062 119.539062 69.535156 C 114.234375 66.324219 118.808594 49.746094 117.125 46.585938 " fill-opacity="1" fill-rule="evenodd"/></g></g></g><g clip-path="url(#f37ff666b3)"><g clip-path="url(#f9cf21b9cc)"><g clip-path="url(#966e257cb4)"><path fill="#7f906c" d="M 117.125 46.585938 C 117.292969 46.679688 117.460938 46.777344 117.628906 46.875 C 119.589844 49.652344 127.117188 61.183594 124.328125 71.074219 C 124.15625 71.082031 123.984375 71.082031 123.804688 71.074219 C 126.566406 61.625 119.546875 50.519531 117.382812 47.40625 C 117.320312 47.078125 117.238281 46.800781 117.125 46.585938 " fill-opacity="1" fill-rule="evenodd"/></g></g></g><g clip-path="url(#3cc2710566)"><g clip-path="url(#7cfcf197ee)"><g clip-path="url(#71e9a47c0a)"><path fill="#7f906c" d="M 102.300781 36.96875 C 114.71875 47.894531 110.265625 70.078125 99.648438 59.894531 C 95.175781 55.601562 103.257812 40.421875 102.300781 36.96875 " fill-opacity="1" fill-rule="evenodd"/></g></g></g><g clip-path="url(#af7bca996e)"><g clip-path="url(#66e26cb0ba)"><g clip-path="url(#b21571c0d0)"><path fill="#7f906c" d="M 102.300781 36.96875 C 102.445312 37.097656 102.585938 37.230469 102.726562 37.359375 C 104.035156 40.496094 108.867188 53.394531 103.988281 62.4375 C 103.820312 62.410156 103.652344 62.371094 103.476562 62.324219 C 108.238281 53.707031 103.808594 41.335938 102.375 37.824219 C 102.386719 37.492188 102.363281 37.203125 102.300781 36.96875 " fill-opacity="1" fill-rule="evenodd"/></g></g></g><g clip-path="url(#9bb4eef789)"><g clip-path="url(#19d833d031)"><g clip-path="url(#4763fac2e6)"><path fill="#7f906c" d="M 137.867188 49.6875 C 154.308594 51.507812 163.390625 72.230469 148.851562 69.980469 C 142.726562 69.03125 140.632812 51.964844 137.867188 49.6875 " fill-opacity="1" fill-rule="evenodd"/></g></g></g><g clip-path="url(#26d54b0d29)"><g clip-path="url(#92bb64a65e)"><g clip-path="url(#cd28e87310)"><path fill="#7f906c" d="M 137.867188 49.6875 C 138.0625 49.707031 138.253906 49.734375 138.441406 49.761719 C 141.3125 51.578125 152.671875 59.371094 153.863281 69.574219 C 153.710938 69.648438 153.550781 69.714844 153.378906 69.773438 C 152.332031 59.988281 141.605469 52.398438 138.417969 50.34375 C 138.238281 50.0625 138.054688 49.839844 137.867188 49.6875 " fill-opacity="1" fill-rule="evenodd"/></g></g></g><g clip-path="url(#84df3ef3d4)"><g clip-path="url(#750720ddf8)"><g clip-path="url(#96f50ee17a)"><path fill="#7f906c" d="M 160.859375 43.414062 C 177.304688 45.238281 186.386719 65.960938 171.84375 63.710938 C 165.71875 62.761719 163.625 45.695312 160.859375 43.414062 " fill-opacity="1" fill-rule="evenodd"/></g></g></g><g clip-path="url(#54bd041306)"><g clip-path="url(#db3a564877)"><g clip-path="url(#331ec8e954)"><path fill="#7f906c" d="M 160.859375 43.414062 C 161.054688 43.4375 161.246094 43.464844 161.4375 43.488281 C 164.308594 45.308594 175.664062 53.097656 176.859375 63.304688 C 176.707031 63.378906 176.542969 63.441406 176.375 63.503906 C 175.328125 53.714844 164.601562 46.125 161.414062 44.070312 C 161.230469 43.792969 161.046875 43.570312 160.859375 43.414062 " fill-opacity="1" fill-rule="evenodd"/></g></g></g><g clip-path="url(#a912a09040)"><g clip-path="url(#dddfe1582c)"><g clip-path="url(#b3fc8e90db)"><path fill="#7f906c" d="M 183.347656 33.675781 C 199.789062 35.5 208.871094 56.222656 194.332031 53.972656 C 188.207031 53.023438 186.113281 35.957031 183.347656 33.675781 " fill-opacity="1" fill-rule="evenodd"/></g></g></g><g clip-path="url(#518d3666e4)"><g clip-path="url(#8d59792acf)"><g clip-path="url(#f8b2bbb964)"><path fill="#7f906c" d="M 183.347656 33.675781 C 183.542969 33.699219 183.734375 33.722656 183.921875 33.75 C 186.796875 35.570312 198.152344 43.359375 199.347656 53.566406 C 199.195312 53.640625 199.03125 53.707031 198.863281 53.765625 C 197.816406 43.976562 187.085938 36.386719 183.902344 34.335938 C 183.71875 34.054688 183.535156 33.832031 183.347656 33.675781 " fill-opacity="1" fill-rule="evenodd"/></g></g></g><g clip-path="url(#e11cca7baf)"><g clip-path="url(#9859104d08)"><g clip-path="url(#ec513855c6)"><g clip-path="url(#502fff7d9b)"><path fill="#7f906c" d="M 214.164062 29.207031 C 230.609375 31.03125 239.6875 51.753906 225.148438 49.503906 C 219.023438 48.554688 216.929688 31.488281 214.164062 29.207031 " fill-opacity="1" fill-rule="evenodd"/></g></g></g></g><g clip-path="url(#59899e9b0f)"><g clip-path="url(#fa194217fd)"><g clip-path="url(#71782665c8)"><g clip-path="url(#9ff2b9239d)"><path fill="#7f906c" d="M 214.164062 29.207031 C 214.359375 29.230469 214.550781 29.253906 214.742188 29.28125 C 217.613281 31.101562 228.96875 38.890625 230.164062 49.097656 C 230.007812 49.171875 229.847656 49.234375 229.679688 49.296875 C 228.632812 39.507812 217.90625 31.917969 214.71875 29.863281 C 214.535156 29.585938 214.351562 29.359375 214.164062 29.207031 " fill-opacity="1" fill-rule="evenodd"/></g></g></g></g><g clip-path="url(#6ab4eb8aa3)"><g clip-path="url(#e522d3d146)"><g clip-path="url(#efc74c1dcb)"><path fill="#7f906c" d="M 198.4375 27.351562 C 214.730469 24.492188 222.480469 3.234375 208.113281 6.402344 C 202.058594 7.738281 201.050781 24.902344 198.4375 27.351562 " fill-opacity="1" fill-rule="evenodd"/></g></g></g><g clip-path="url(#0b7adbffdc)"><g clip-path="url(#10b6b94899)"><g clip-path="url(#74819fc764)"><path fill="#7f906c" d="M 198.4375 27.351562 C 198.628906 27.320312 198.816406 27.28125 199.003906 27.242188 C 201.757812 25.246094 212.597656 16.75 213.144531 6.492188 C 212.984375 6.429688 212.820312 6.371094 212.644531 6.324219 C 212.222656 16.15625 201.996094 24.410156 198.945312 26.660156 C 198.78125 26.953125 198.613281 27.1875 198.4375 27.351562 " fill-opacity="1" fill-rule="evenodd"/></g></g></g><g clip-path="url(#43f5a65a3d)"><g clip-path="url(#65ee8876c3)"><g clip-path="url(#f5b32d37ee)"><path fill="#7f906c" d="M 179.75 34.21875 C 194.5625 26.84375 195.949219 4.261719 183.074219 11.382812 C 177.652344 14.382812 181.5625 31.125 179.75 34.21875 " fill-opacity="1" fill-rule="evenodd"/></g></g></g><g clip-path="url(#6302ac1d78)"><g clip-path="url(#6a0d8fa4a0)"><g clip-path="url(#4f0351a1d1)"><path fill="#7f906c" d="M 179.75 34.21875 C 179.925781 34.132812 180.097656 34.039062 180.265625 33.949219 C 182.335938 31.253906 190.316406 20.027344 187.921875 10.035156 C 187.753906 10.019531 187.578125 10.015625 187.398438 10.015625 C 189.785156 19.566406 182.332031 30.382812 180.042969 33.410156 C 179.96875 33.734375 179.875 34.007812 179.75 34.21875 " fill-opacity="1" fill-rule="evenodd"/></g></g></g><g clip-path="url(#e3007424a8)"><g clip-path="url(#fc57ccb367)"><g clip-path="url(#0f50cf368e)"><g clip-path="url(#9a35c97905)"><path fill="#7f906c" d="M 16.980469 11.742188 C 17.214844 11.691406 63.296875 8.921875 114.523438 43.382812 C 148.007812 65.910156 197.878906 9.589844 220.125 31.332031 C 188.855469 15.832031 146.519531 68.292969 113.519531 44.847656 C 107.96875 40.902344 60.683594 8.445312 17.753906 15.429688 L 16.980469 11.742188 " fill-opacity="1" fill-rule="evenodd"/></g></g></g></g><g clip-path="url(#3201c1c061)"><g clip-path="url(#ce6d405a48)"><g clip-path="url(#ee304f0a7c)"><path fill="#7f906c" d="M 161.613281 42.191406 C 176.421875 34.816406 177.8125 12.230469 164.933594 19.355469 C 159.511719 22.355469 163.421875 39.097656 161.613281 42.191406 " fill-opacity="1" fill-rule="evenodd"/></g></g></g><g clip-path="url(#eed8e7bcc2)"><g clip-path="url(#f80d9f1e77)"><g clip-path="url(#af668ece4b)"><path fill="#7f906c" d="M 161.613281 42.191406 C 161.785156 42.101562 161.957031 42.011719 162.128906 41.921875 C 164.199219 39.226562 172.175781 28 169.78125 18.007812 C 169.613281 17.992188 169.4375 17.984375 169.257812 17.988281 C 171.644531 27.535156 164.191406 38.355469 161.90625 41.382812 C 161.832031 41.707031 161.734375 41.980469 161.613281 42.191406 " fill-opacity="1" fill-rule="evenodd"/></g></g></g><g clip-path="url(#261f5c07ba)"><g clip-path="url(#75e63c5d41)"><g clip-path="url(#b5a5a2bb58)"><path fill="#7f906c" d="M 137.902344 49.019531 C 152.710938 41.648438 154.101562 19.0625 141.226562 26.183594 C 135.800781 29.183594 139.714844 45.929688 137.902344 49.019531 " fill-opacity="1" fill-rule="evenodd"/></g></g></g><g clip-path="url(#1b72b68225)"><g clip-path="url(#b24b124761)"><g clip-path="url(#1e3cfd6a27)"><path fill="#7f906c" d="M 137.902344 49.019531 C 138.078125 48.933594 138.246094 48.84375 138.417969 48.753906 C 140.488281 46.058594 148.46875 34.828125 146.074219 24.839844 C 145.902344 24.824219 145.726562 24.816406 145.546875 24.820312 C 147.9375 34.367188 140.480469 45.1875 138.195312 48.214844 C 138.121094 48.539062 138.023438 48.8125 137.902344 49.019531 " fill-opacity="1" fill-rule="evenodd"/></g></g></g><g clip-path="url(#c758792057)"><g clip-path="url(#0957b48aff)"><g clip-path="url(#3ab97528f1)"><path fill="#7f906c" d="M 114.109375 44.046875 C 130.292969 40.605469 137.277344 19.085938 123.03125 22.761719 C 117.027344 24.3125 116.636719 41.503906 114.109375 44.046875 " fill-opacity="1" fill-rule="evenodd"/></g></g></g><g clip-path="url(#e5c2b0345f)"><g clip-path="url(#68b9de90c5)"><g clip-path="url(#14c1b1dc42)"><path fill="#7f906c" d="M 114.109375 44.046875 C 114.300781 44.003906 114.488281 43.960938 114.675781 43.914062 C 117.351562 41.820312 127.882812 32.941406 128.058594 22.671875 C 127.898438 22.613281 127.734375 22.5625 127.558594 22.519531 C 127.484375 32.363281 117.5625 40.976562 114.59375 43.335938 C 114.441406 43.632812 114.28125 43.875 114.109375 44.046875 " fill-opacity="1" fill-rule="evenodd"/></g></g></g><g clip-path="url(#3e018c51c4)"><g clip-path="url(#05f731185b)"><g clip-path="url(#b662816f02)"><path fill="#7f906c" d="M 94.667969 32.511719 C 111.070312 30.363281 119.738281 9.460938 105.246094 12.003906 C 99.136719 13.074219 97.386719 30.179688 94.667969 32.511719 " fill-opacity="1" fill-rule="evenodd"/></g></g></g><g clip-path="url(#77f008fa41)"><g clip-path="url(#986593b55c)"><g clip-path="url(#3319f10251)"><path fill="#7f906c" d="M 94.667969 32.511719 C 94.859375 32.488281 95.050781 32.457031 95.242188 32.425781 C 98.078125 30.550781 109.277344 22.535156 110.265625 12.308594 C 110.109375 12.238281 109.949219 12.171875 109.777344 12.117188 C 108.925781 21.925781 98.351562 29.726562 95.207031 31.84375 C 95.03125 32.128906 94.851562 32.355469 94.667969 32.511719 " fill-opacity="1" fill-rule="evenodd"/></g></g></g><g clip-path="url(#8f5a042b28)"><g clip-path="url(#725f88bc05)"><g clip-path="url(#76977ed5ab)"><path fill="#7f906c" d="M 80.46875 26.046875 C 92.886719 36.976562 88.433594 59.160156 77.816406 48.972656 C 73.34375 44.679688 81.421875 29.503906 80.46875 26.046875 " fill-opacity="1" fill-rule="evenodd"/></g></g></g><g clip-path="url(#9d1488a300)"><g clip-path="url(#75f9b6014d)"><g clip-path="url(#e3239b6b5e)"><path fill="#7f906c" d="M 80.46875 26.046875 C 80.613281 26.175781 80.753906 26.308594 80.894531 26.441406 C 82.203125 29.574219 87.035156 42.472656 82.15625 51.515625 C 81.988281 51.488281 81.820312 51.449219 81.644531 51.402344 C 86.402344 42.785156 81.976562 30.414062 80.542969 26.902344 C 80.554688 26.570312 80.53125 26.28125 80.46875 26.046875 " fill-opacity="1" fill-rule="evenodd"/></g></g></g><g clip-path="url(#9b1d0c112d)"><g clip-path="url(#e36ee0b469)"><g clip-path="url(#0ca546da5d)"><path fill="#7f906c" d="M 66.511719 20.335938 C 83.023438 21.351562 95.511719 2.484375 80.800781 2.214844 C 74.601562 2.105469 69.625 18.5625 66.511719 20.335938 " fill-opacity="1" fill-rule="evenodd"/></g></g></g><g clip-path="url(#889fd62e2b)"><g clip-path="url(#6d3fcb02a0)"><g clip-path="url(#43e42c07e9)"><path fill="#7f906c" d="M 66.511719 20.335938 C 66.707031 20.347656 66.898438 20.355469 67.089844 20.359375 C 70.234375 19.058594 82.753906 13.324219 85.671875 3.472656 C 85.535156 3.375 85.386719 3.28125 85.230469 3.195312 C 82.527344 12.65625 70.660156 18.304688 67.167969 19.78125 C 66.941406 20.027344 66.722656 20.214844 66.511719 20.335938 " fill-opacity="1" fill-rule="evenodd"/></g></g></g><g clip-path="url(#4d6a8c6ac2)"><g clip-path="url(#7f076c6b38)"><g clip-path="url(#997f2ca668)"><path fill="#7f906c" d="M 49.78125 15.953125 C 64.5625 23.382812 65.863281 45.972656 53.015625 38.800781 C 47.601562 35.78125 51.578125 19.050781 49.78125 15.953125 " fill-opacity="1" fill-rule="evenodd"/></g></g></g><g clip-path="url(#f5a0e50c0e)"><g clip-path="url(#c0c9ac130c)"><g clip-path="url(#adfbed656c)"><path fill="#7f906c" d="M 49.78125 15.953125 C 49.953125 16.039062 50.125 16.132812 50.292969 16.222656 C 52.355469 18.925781 60.289062 30.183594 57.855469 40.164062 C 57.6875 40.179688 57.515625 40.1875 57.335938 40.183594 C 59.757812 30.644531 52.34375 19.792969 50.070312 16.761719 C 49.996094 16.433594 49.902344 16.164062 49.78125 15.953125 " fill-opacity="1" fill-rule="evenodd"/></g></g></g></svg>