<svg xmlns="http://www.w3.org/2000/svg" xmlns:xlink="http://www.w3.org/1999/xlink" width="350" zoomAndPan="magnify" viewBox="0 0 262.5 74.999997" height="100" preserveAspectRatio="xMidYMid meet" version="1.0"><defs><clipPath id="e9cc4b04d5"><path d="M 0 18.375 L 261 18.375 L 261 56.550781 L 0 56.550781 Z M 0 18.375 " clip-rule="nonzero"/></clipPath></defs><g clip-path="url(#e9cc4b04d5)"><path fill="#000000" d="M 143.347656 18.960938 C 144.933594 19.53125 146.585938 20.722656 146.585938 21.296875 C 146.585938 21.625 146.335938 21.59375 145.335938 21.140625 C 142.519531 19.859375 138.964844 20.621094 136.320312 23.074219 C 133.960938 25.265625 133.527344 26.257812 133.691406 29.089844 C 133.863281 32.054688 134.984375 34.191406 137.878906 37.074219 C 141.191406 40.371094 143.925781 42.023438 148.667969 43.574219 C 153.109375 45.027344 155.941406 45.449219 161.164062 45.429688 C 166.421875 45.410156 169.449219 45.039062 179.96875 43.136719 C 190.386719 41.25 192.023438 41.070312 198.558594 41.089844 C 203.386719 41.105469 204.96875 41.222656 207.351562 41.730469 C 212.246094 42.78125 216.003906 44.941406 217.273438 47.4375 C 219.078125 50.980469 216.382812 56.269531 212.78125 56.246094 C 211.957031 56.1875 211.175781 55.964844 210.441406 55.585938 C 209.707031 55.203125 209.082031 54.691406 208.558594 54.050781 C 207.609375 52.804688 207.191406 50.09375 207.832031 49.324219 C 208.335938 48.707031 208.644531 48.988281 209.429688 50.769531 C 210.152344 52.402344 211.367188 53.597656 212.3125 53.597656 C 213.785156 53.597656 214.929688 52.046875 214.957031 50.007812 C 214.96875 49.03125 214.785156 48.632812 213.890625 47.714844 C 211.699219 45.464844 208.234375 44.355469 201.726562 43.8125 C 196.222656 43.355469 191.382812 43.746094 181.242188 45.476562 C 169.9375 47.402344 166.734375 47.777344 161.457031 47.789062 C 158.757812 47.878906 156.082031 47.667969 153.429688 47.148438 C 143.289062 45.15625 135.46875 40.152344 132.222656 33.570312 C 131.191406 31.480469 131.128906 31.195312 131.128906 28.535156 C 131.128906 26.015625 131.210938 25.578125 131.910156 24.386719 C 132.945312 22.621094 135.667969 20.074219 137.285156 19.359375 C 138.242188 18.949219 139.242188 18.707031 140.28125 18.640625 C 141.324219 18.570312 142.34375 18.679688 143.347656 18.960938 Z M 122.28125 18.980469 C 123.75 19.492188 125.066406 20.265625 126.230469 21.296875 C 127.394531 22.332031 128.320312 23.546875 129.007812 24.945312 C 129.5 26.140625 129.695312 27.378906 129.59375 28.667969 C 129.554688 32.523438 128.234375 35.15625 124.460938 38.886719 C 119.640625 43.65625 111.855469 46.871094 103.136719 47.6875 C 97.6875 48.199219 93.546875 47.824219 80.484375 45.632812 C 70.351562 43.933594 64.972656 43.414062 60.339844 43.691406 C 53.945312 44.074219 50.035156 45.070312 47.578125 46.949219 C 45.378906 48.628906 45.039062 50.769531 46.660156 52.699219 C 48.050781 54.355469 49.859375 53.570312 51.21875 50.71875 C 51.703125 49.703125 52.21875 48.875 52.367188 48.875 C 52.925781 48.875 53.308594 50.164062 53.132812 51.449219 C 52.75 54.273438 50.71875 56.105469 47.972656 56.105469 C 45.902344 56.105469 44.851562 55.40625 43.671875 53.25 C 41.019531 48.398438 44.375 43.90625 52.066406 42.003906 C 55.238281 41.21875 60.414062 40.824219 64.878906 41.019531 C 69.429688 41.222656 73.492188 41.785156 82.984375 43.527344 C 92.941406 45.351562 98.484375 45.84375 103.449219 45.34375 C 109.246094 44.753906 115.101562 42.863281 118.957031 40.328125 C 121.640625 38.5625 125.070312 34.972656 126.105469 32.855469 C 126.992188 31.035156 127.347656 28.25 126.898438 26.597656 C 126.46875 25.023438 124.347656 22.652344 122.421875 21.601562 C 120.261719 20.425781 117.207031 20.207031 115.445312 21.105469 C 114.777344 21.445312 114.152344 21.609375 114.066406 21.464844 C 113.773438 20.992188 115.917969 19.40625 117.484375 18.945312 C 119.085938 18.367188 120.683594 18.378906 122.277344 18.976562 Z M 136.855469 27.164062 C 139.257812 32.132812 149.472656 38.257812 159.101562 40.503906 C 162.261719 41.242188 168.875 41.25 171.585938 40.523438 C 175.183594 39.554688 177.679688 37.738281 177.984375 35.863281 C 178.078125 35.53125 178.070312 35.203125 177.960938 34.878906 C 177.851562 34.554688 177.660156 34.289062 177.382812 34.085938 C 175.9375 32.636719 171.949219 32.191406 170.796875 33.347656 C 170.382812 33.757812 170.378906 33.90625 170.753906 34.609375 C 171.066406 35.132812 171.480469 35.5625 171.992188 35.898438 C 172.707031 36.335938 172.753906 36.445312 172.359375 36.773438 C 171.121094 37.800781 168.460938 36.304688 167.953125 34.296875 C 166.808594 29.777344 175.125 28.179688 179.203125 32.136719 C 179.582031 32.507812 179.890625 32.929688 180.125 33.402344 C 180.363281 33.875 180.515625 34.375 180.582031 34.902344 C 180.648438 35.425781 180.625 35.949219 180.515625 36.464844 C 180.40625 36.984375 180.214844 37.46875 179.941406 37.921875 L 179.503906 38.621094 L 181.816406 38.421875 C 183.089844 38.3125 187.375 37.742188 191.34375 37.160156 C 197.828125 36.203125 199.210938 36.09375 205.035156 36.066406 C 210.335938 36.046875 211.96875 36.140625 214.003906 36.589844 C 219.695312 37.84375 222.878906 39.277344 230.234375 43.894531 C 238.871094 49.3125 241.988281 50.46875 248.023438 50.484375 C 251.382812 50.492188 252.066406 50.40625 253.601562 49.789062 C 255.667969 48.957031 257.5 47.335938 257.871094 46.003906 C 258.25 44.65625 257.246094 42.859375 255.40625 41.589844 C 253.710938 40.421875 252.769531 40.144531 251.738281 40.507812 C 251.035156 40.75 250.960938 40.9375 250.878906 42.613281 C 250.796875 44.347656 250.75 44.453125 250.0625 44.453125 C 249.046875 44.453125 248.171875 42.929688 248.167969 41.15625 C 248.167969 37.824219 251.863281 36.382812 255.558594 38.273438 C 257.417969 39.296875 258.90625 40.714844 260.023438 42.519531 C 261.976562 46.304688 259.214844 50.640625 253.699219 52.453125 C 251.859375 53.054688 251.019531 53.148438 247.730469 53.125 C 244.5 53.097656 243.492188 52.96875 241.253906 52.304688 C 237.804688 51.28125 234.136719 49.417969 228.152344 45.640625 C 225.476562 43.957031 222.230469 42.082031 220.9375 41.476562 C 217.542969 39.992188 214.007812 39.007812 210.335938 38.527344 C 207.449219 38.148438 199.074219 38.316406 195.023438 38.832031 C 190.445312 39.46875 185.847656 39.867188 181.230469 40.027344 C 178.410156 40.027344 178.28125 40.058594 176.597656 41.097656 C 174.140625 42.617188 171.546875 43.269531 167.199219 43.464844 C 160.820312 43.746094 155.628906 42.574219 148.746094 39.300781 C 144.3125 37.1875 141.019531 34.964844 138.605469 32.460938 C 135.8125 29.554688 134.714844 27.097656 135.808594 26.191406 C 136.140625 25.914062 136.339844 26.101562 136.855469 27.164062 Z M 125.140625 26.585938 C 126.273438 29.078125 120.195312 35.265625 113.167969 38.773438 C 107.4375 41.632812 101.863281 43.222656 96.664062 43.476562 C 91.007812 43.753906 86.988281 42.953125 83.773438 40.914062 C 82.46875 40.085938 82.191406 40.027344 79.519531 40.023438 C 74.863281 39.867188 70.230469 39.464844 65.613281 38.828125 C 61.785156 38.257812 52.738281 38.160156 49.566406 38.652344 C 43.164062 39.648438 39.949219 40.988281 32.070312 45.929688 C 23.726562 51.167969 19.46875 52.859375 13.789062 53.195312 C 9.273438 53.464844 5.015625 52.273438 2.464844 50.027344 C 1.136719 48.855469 -0.046875 46.507812 -0.0390625 45.042969 C -0.03125 42.582031 2.261719 39.707031 5.398438 38.214844 C 9.054688 36.472656 12.25 37.644531 12.523438 40.835938 C 12.691406 42.800781 11.910156 44.304688 10.714844 44.304688 L 9.847656 44.304688 L 9.925781 42.613281 C 9.996094 41.054688 9.945312 40.890625 9.269531 40.582031 C 8.148438 40.070312 6.617188 40.507812 4.976562 41.8125 C 2.328125 43.910156 1.96875 45.867188 3.894531 47.796875 C 7.148438 51.058594 14.273438 51.578125 21.003906 49.042969 C 23.363281 48.15625 26.949219 46.171875 31.570312 43.199219 C 43.230469 35.699219 51.421875 34.472656 70.449219 37.355469 C 76.011719 38.199219 80.925781 38.71875 80.925781 38.464844 C 80.804688 38.058594 80.65625 37.660156 80.484375 37.273438 C 80.246094 36.769531 80.109375 36.242188 80.070312 35.6875 C 80.03125 35.132812 80.089844 34.589844 80.25 34.058594 C 80.410156 33.527344 80.660156 33.039062 80.996094 32.601562 C 81.335938 32.160156 81.742188 31.792969 82.214844 31.503906 C 85.226562 29.445312 89.5 29.308594 91.65625 31.207031 C 92.875 32.277344 93.179688 33.421875 92.605469 34.792969 C 91.902344 36.476562 89.148438 37.765625 88.226562 36.84375 C 88.011719 36.628906 88.242188 36.25 88.984375 35.597656 C 90.359375 34.390625 90.410156 33.429688 89.125 32.980469 C 86.289062 31.988281 82.691406 33.449219 82.691406 35.589844 C 82.691406 36.800781 84.277344 38.523438 86.28125 39.496094 C 88.882812 40.75 90.707031 41.054688 95.5 41.03125 C 99.296875 41.011719 100.316406 40.898438 102.757812 40.230469 C 107.875 38.859375 112.65625 36.726562 117.097656 33.835938 C 120.085938 31.832031 123.488281 28.390625 123.84375 27.003906 C 124.15625 25.792969 124.695312 25.621094 125.136719 26.589844 Z M 131.5 38.035156 C 131.917969 42.304688 132.910156 45.460938 134.515625 47.582031 C 136.046875 49.617188 138.046875 50.941406 139.578125 50.941406 C 140.570312 50.941406 140.699219 50.859375 140.699219 50.21875 C 140.554688 49.476562 140.261719 48.796875 139.816406 48.183594 C 138.785156 46.65625 138.734375 46.339844 139.480469 46.148438 C 140.605469 45.851562 141.773438 46.6875 142.601562 48.382812 C 143.484375 50.195312 143.363281 50.109375 146.984375 51.367188 C 148.417969 51.863281 149.542969 52.402344 149.488281 52.5625 C 149.429688 52.726562 148.457031 52.859375 147.324219 52.859375 C 146.191406 52.9375 145.109375 52.734375 144.085938 52.246094 L 142.90625 51.628906 L 141.90625 52.316406 C 141.320312 52.707031 140.675781 52.9375 139.972656 53 C 138.152344 52.875 136.542969 52.226562 135.144531 51.050781 L 133.941406 50.019531 L 132.980469 52.027344 C 132.546875 52.871094 132.207031 53.75 131.964844 54.667969 C 131.886719 55.503906 130.988281 56.546875 130.347656 56.546875 C 129.746094 56.546875 128.625 55.199219 128.625 54.472656 C 128.421875 53.613281 128.117188 52.792969 127.714844 52.003906 L 126.800781 50.050781 L 125.90625 50.804688 C 124.578125 51.949219 123.050781 52.644531 121.316406 52.902344 C 120.894531 53 120.472656 53 120.050781 52.90625 C 119.625 52.808594 119.246094 52.621094 118.910156 52.347656 L 117.878906 51.640625 L 116.347656 52.335938 C 115.300781 52.855469 114.199219 53.058594 113.035156 52.945312 C 112.054688 52.894531 111.21875 52.722656 111.179688 52.5625 C 111.140625 52.398438 112.300781 51.863281 113.757812 51.367188 C 117.191406 50.207031 117.621094 49.949219 117.824219 48.933594 C 118.078125 47.648438 119.558594 46.21875 120.628906 46.21875 C 121 46.179688 121.34375 46.257812 121.664062 46.445312 C 121.738281 46.566406 121.332031 47.425781 120.761719 48.347656 C 119.574219 50.265625 119.632812 50.9375 120.992188 50.9375 C 122.425781 50.9375 123.773438 50.140625 125.507812 48.261719 C 127.820312 45.761719 129.214844 41.488281 129.214844 36.917969 C 129.214844 35.109375 129.617188 34.230469 130.09375 35.003906 C 130.253906 35.261719 130.378906 35.273438 130.519531 35.039062 C 130.992188 34.277344 131.195312 34.898438 131.503906 38.035156 Z M 131.5 38.035156 " fill-opacity="1" fill-rule="nonzero"/></g></svg>